{"title":"We Are What We Are (2013) DVDRip.mp4","uid":9071625,"size":281600679,"categoryP":"video","categoryS":"movies","magnet":"?xt=urn:btih:46478ac7f609a01b3def646e8545126490041360&amp;dn=We+Are+What+We+Are+%282013%29+DVDRip.mp4&amp;tr=udp%3A%2F%2Ftracker.openbittorrent.com%3A80&amp;tr=udp%3A%2F%2Fopen.demonii.com%3A1337&amp;tr=udp%3A%2F%2Ftracker.coppersurfer.tk%3A6969&amp;tr=udp%3A%2F%2Fexodus.desync.com%3A6969","seeders":0,"leechers":1,"uploader":"globeplus","files":-1,"time":1382210823,"description":"We Are What We Are (2013) DVDRip.mp4\n\nFormat                                   : MPEG-4\nFormat profile                           : Base Media\nCodec ID                                 : isom\nFile size                                : 269 MiB\nDuration                                 : 1h 45mn\nOverall bit rate                         : 357 Kbps\nWriting application                      : Lavf54.32.101\n\nVideo\n\nID                                       : 1\nFormat                                   : AVC\nFormat/Info                              : Advanced Video Codec\nFormat profile                           : &lt;a class=&quot;__cf_email__&quot; href=&quot;/cdn-cgi/l/email-protection&quot; data-cfemail=&quot;bbf3d2dcd3fbf788958b&quot;&gt;[email&amp;#160;protected]&lt;/a&gt;&lt;script cf-hash='f9e31' type=&quot;text/javascript&quot;&gt;\n/* &lt;![CDATA[ */!function(){try{var t=&quot;currentScript&quot;in document?document.currentScript:function(){for(var t=document.getElementsByTagName(&quot;script&quot;),e=t.length;e--;)if(t[e].getAttribute(&quot;cf-hash&quot;))return t[e]}();if(t&amp;&amp;t.previousSibling){var e,r,n,i,c=t.previousSibling,a=c.getAttribute(&quot;data-cfemail&quot;);if(a){for(e=&quot;&quot;,r=parseInt(a.substr(0,2),16),n=2;a.length-n;n+=2)i=parseInt(a.substr(n,2),16)^r,e+=String.fromCharCode(i);e=document.createTextNode(e),c.parentNode.replaceChild(e,c)}}}catch(u){}}();/* ]]&gt; */&lt;/script&gt;\nFormat settings, CABAC                   : Yes\nFormat settings, ReFrames                : 4 frames\nCodec ID                                 : avc1\nCodec ID/Info                            : Advanced Video Coding\nDuration                                 : 1h 45mn\nBit rate mode                            : Variable\nBit rate                                 : 252 Kbps\nWidth                                    : 720 pixels\nHeight                                   : 304 pixels\nDisplay aspect ratio                     : 2.35:1\nFrame rate mode                          : Constant\nFrame rate                               : 23.976 fps\nColor space                              : YUV\nChroma subsampling                       : 4:2:0\nBit depth                                : 8 bits\nScan type                                : Progressive\nBits/(Pixel*Frame)                       : 0.048\nStream size                              : 189 MiB (70%)\nWriting library                          : x264 core 128 r2216 198a7ea\n\n\nAudio\n\nID                                       : 2\nFormat                                   : AAC\nFormat/Info                              : Advanced Audio Codec\nFormat profile                           : LC\nCodec ID                                 : 40\nDuration                                 : 1h 45mn\nBit rate mode                            : Constant\nBit rate                                 : 98.5 Kbps\nChannel(s)                               : 2 channels\nChannel positions                        : Front: L R\nSampling rate                            : 48.0 KHz\nCompression mode                         : Lossy\nStream size                              : 74.1 MiB (28%)\nLanguage                                 : English\n\nMenu\n00:00:00.000                             : Chapter 1\n00:05:20.729                             : Chapter 2\n00:11:58.793                             : Chapter 3\n00:16:00.326                             : Chapter 4\n00:22:13.824                             : Chapter 5\n00:29:52.658                             : Chapter 6\n00:37:32.701                             : Chapter 7\n00:41:58.132                             : Chapter 8\n00:46:43.042                             : Chapter 9\n00:53:48.842                             : Chapter 10\n00:59:16.128                             : Chapter 11\n01:09:24.777                             : Chapter 12\n01:15:56.419                             : Chapter 13\n01:19:59.161                             : Chapter 14\n01:24:05.240                             : Chapter 15\n01:31:21.635                             : Chapter 16\n01:34:53.179                             : Chapter 17\n01:40:09.203                             : Chapter 18\n01:45:07.501                             : Chapter 19\n\n\nPlot\n\nA seemingly wholesome and benevolent family, the Parkers have always kept to themselves, and for good reason. Behind closed doors, patriarch Frank rules his family with a rigorous fervor, determined to keep his ancestral customs intact at any cost. As a torrential rainstorm moves into the area, tragedy strikes and his daughters Iris and Rose are forced to assume responsibilities that extend beyond those of a typical family. As the unrelenting downpour continues to flood their small town, the local authorities begin to uncover clues that bring them closer to the secret that the Parkers have held closely for so many years.\n\n\n\n* enjoy ...\n","torrent":{"xt":"urn:btih:46478ac7f609a01b3def646e8545126490041360","amp;dn":"We+Are+What+We+Are+%282013%29+DVDRip.mp4","amp;tr":["udp%3A%2F%2Ftracker.openbittorrent.com%3A80","udp%3A%2F%2Fopen.demonii.com%3A1337","udp%3A%2F%2Ftracker.coppersurfer.tk%3A6969","udp%3A%2F%2Fexodus.desync.com%3A6969"],"infoHash":"46478ac7f609a01b3def646e8545126490041360","infoHashBuffer":{"type":"Buffer","data":[70,71,138,199,246,9,160,27,61,239,100,110,133,69,18,100,144,4,19,96]},"announce":[],"urlList":[]}}